<?xml version="1.0" encoding="iso-8859-1"?>
<!-- Uploaded to: SVG Repo, www.svgrepo.com, Generator: SVG Repo Mixer Tools -->
<svg fill="#000000" version="1.1" id="Layer_1" xmlns="http://www.w3.org/2000/svg" xmlns:xlink="http://www.w3.org/1999/xlink" 
	 viewBox="0 0 472.615 472.615" xml:space="preserve">
<g>
	<g>
		<path d="M178.228,0.29v199.763h63.083v42.056l63.082-42.056h168.221V0.29H178.228z M388.504,168.509H262.339v-21.027h126.166
			V168.509z M430.56,115.94H220.283V94.912H430.56V115.94z M430.56,63.371H220.283V42.343H430.56V63.371z"/>
	</g>
</g>
<g>
	<g>
		<path d="M99.713,394.164c-11.891,7.131-23.087,15.517-33.488,25.103c21.555,19.861,46.561,34.644,73.745,43.648
			C123.795,445.722,110.015,422.325,99.713,394.164z"/>
	</g>
</g>
<g>
	<g>
		<path d="M100.359,278.905c0.829,30.301,5.09,59.127,12.178,84.834c25.429-11.366,52.931-17.827,81.462-19.128v-65.706H100.359z"/>
	</g>
</g>
<g>
	<g>
		<path d="M79.335,278.905H0c2.362,46.727,20.341,90.535,51.474,125.399c12.832-11.903,26.734-22.224,41.61-30.71
			C84.973,345.223,80.173,313.165,79.335,278.905z"/>
	</g>
</g>
<g>
	<g>
		<path d="M118.919,383.986c17.133,48.134,44.357,81.986,75.079,88.339V365.639C167.648,366.963,142.302,373.197,118.919,383.986z"
			/>
	</g>
</g>
<g>
	<g>
		<path d="M66.116,117.519c10.425,9.582,21.703,18.118,33.783,25.312c10.284-28.028,24.034-51.594,40.268-68.928
			C112.805,83.005,87.502,97.854,66.116,117.519z"/>
	</g>
</g>
<g>
	<g>
		<path d="M51.424,132.541C20.315,167.405,2.36,211.178,0,257.876h79.294c0.854-33.9,5.757-66.053,14.026-94.7
			C78.273,154.641,64.221,144.373,51.424,132.541z"/>
	</g>
</g>
<g>
	<g>
		<path d="M329.689,278.905c-0.837,34.26-5.637,66.318-13.749,94.689c14.877,8.486,28.778,18.808,41.611,30.71
			c31.139-34.881,49.112-78.683,51.474-125.399H329.689z"/>
	</g>
</g>
<g>
	<g>
		<path d="M215.026,278.905v65.706c28.531,1.301,56.034,7.762,81.463,19.128c7.086-25.707,11.349-54.534,12.178-84.834H215.026z"/>
	</g>
</g>
<g>
	<g>
		<path d="M309.313,394.164c-10.302,28.161-24.084,51.56-40.26,68.752c27.194-9.003,52.201-23.79,73.751-43.646
			C332.402,409.682,321.204,401.295,309.313,394.164z"/>
	</g>
</g>
<g>
	<g>
		<path d="M118.756,152.657c12.325,5.706,25.224,10.098,38.444,13.297V86.249C141.707,102.015,128.534,125.009,118.756,152.657z"/>
	</g>
</g>
<g>
	<g>
		<rect x="215.03" y="221.075" width="5.258" height="36.795"/>
	</g>
</g>
<g>
	<g>
		<path d="M157.2,221.078v-33.508c-15.383-3.364-30.373-8.291-44.712-14.716c-7.082,25.871-11.356,54.771-12.173,85.022h93.683
			v-36.798H157.2z"/>
	</g>
</g>
<g>
	<g>
		<path d="M403.891,221.078h-76.855c1.381,12.1,2.404,24.344,2.716,36.798h79.361C408.481,245.424,406.697,233.132,403.891,221.078z
			"/>
	</g>
</g>
<g>
	<g>
		<path d="M306.249,224.085l-50.684,33.791h53.158C308.424,246.439,307.499,235.194,306.249,224.085z"/>
	</g>
</g>
<g>
	<g>
		<path d="M215.026,365.639v106.686c30.722-6.353,57.946-40.205,75.08-88.339C266.723,373.197,241.376,366.963,215.026,365.639z"/>
	</g>
</g>
</svg>